<svg xmlns="http://www.w3.org/2000/svg" viewBox="0 0 800 600"><g fill="#9A9A9A"><path d="M57.4 221.1c0-8.4 4.4-15.8 13.3-22.1s19.5-9.4 31.8-9.4 22.9 3.1 31.8 9.4c8.9 6.3 13.3 13.8 13.3 22.6 0 8.9-4.4 16.5-13.3 22.8-8.6 6.1-19.2 9.2-31.8 9.2-12.5 0-23.2-3.1-32.1-9.4-8.7-6.3-13-13.9-13-23.1zm0 173.1c0-8.6 4.4-16 13.3-22.3s19.5-9.4 31.8-9.4 22.9 3.1 31.8 9.4 13.3 13.8 13.3 22.6c0 8.9-4.4 16.5-13.3 22.8-8.6 6.1-19.2 9.2-31.8 9.2-12.8 0-23.5-3.1-32.1-9.2-8.7-6.2-13-13.9-13-23.1zM262.3 221.1c0-8.4 4.4-15.8 13.3-22.1s19.5-9.4 31.8-9.4 22.9 3.1 31.8 9.4c8.9 6.3 13.3 13.8 13.3 22.6 0 8.9-4.4 16.5-13.3 22.8-8.6 6.1-19.2 9.2-31.8 9.2-12.5 0-23.2-3.1-32.1-9.4-8.7-6.3-13-13.9-13-23.1zm0 173.1c0-8.6 4.4-16 13.3-22.3s19.5-9.4 31.8-9.4 22.9 3.1 31.8 9.4 13.3 13.8 13.3 22.6c0 8.9-4.4 16.5-13.3 22.8-8.6 6.1-19.2 9.2-31.8 9.2-12.8 0-23.5-3.1-32.1-9.2-8.7-6.2-13-13.9-13-23.1zM457 189.6h76.7l1 17.4c26.7-18.8 56.8-28.2 90.2-28.2 38.4 0 68.4 8.6 89.9 25.8 18.5 14.6 27.8 38.5 27.8 71.5v150.4h-76.7V289.1c0-23.1-4.5-39-13.6-47.9-8.8-9-24.9-13.5-48.2-13.5-25.3 0-43.3 5.9-53.9 17.8-10.4 11.7-15.6 32.2-15.6 61.3v119.7H458l-1-236.9z"/></g></svg>