<?xml version="1.0" encoding="utf-8"?>
<!-- Generator: Adobe Illustrator 18.0.0, SVG Export Plug-In . SVG Version: 6.00 Build 0)  -->
<!DOCTYPE svg PUBLIC "-//W3C//DTD SVG 1.1//EN" "http://www.w3.org/Graphics/SVG/1.1/DTD/svg11.dtd">
<svg version="1.1" id="Layer_1" xmlns="http://www.w3.org/2000/svg" xmlns:xlink="http://www.w3.org/1999/xlink" x="0px" y="0px"
	 viewBox="0 0 800 600" style="enable-background:new 0 0 800 600;" xml:space="preserve">
<g>
	<path style="fill:#9A9A9A;" d="M47.4,219.9c0-7.5,3.9-14,11.8-19.6c7.9-5.6,17.3-8.4,28.2-8.4s20.3,2.8,28.2,8.4
		c7.9,5.6,11.8,12.3,11.8,20c0,7.9-3.9,14.6-11.8,20.2c-7.7,5.4-17.1,8.2-28.2,8.2c-11.1,0-20.6-2.8-28.5-8.4
		C51.3,234.9,47.4,228.1,47.4,219.9z M47.4,373.4c0-7.6,3.9-14.2,11.8-19.8c7.9-5.6,17.3-8.4,28.2-8.4s20.3,2.8,28.2,8.4
		c7.9,5.6,11.8,12.3,11.8,20c0,7.9-3.9,14.6-11.8,20.2c-7.7,5.4-17.1,8.2-28.2,8.2c-11.3,0-20.8-2.7-28.5-8.2
		C51.3,388.4,47.4,381.6,47.4,373.4z"/>
	<path style="fill:#9A9A9A;" d="M229.2,219.9c0-7.5,3.9-14,11.8-19.6c7.9-5.6,17.3-8.4,28.2-8.4s20.3,2.8,28.2,8.4
		c7.9,5.6,11.8,12.3,11.8,20c0,7.9-3.9,14.6-11.8,20.2c-7.7,5.4-17.1,8.2-28.2,8.2c-11.1,0-20.6-2.8-28.5-8.4
		C233,234.9,229.2,228.1,229.2,219.9z M229.2,373.4c0-7.6,3.9-14.2,11.8-19.8c7.9-5.6,17.3-8.4,28.2-8.4s20.3,2.8,28.2,8.4
		c7.9,5.6,11.8,12.3,11.8,20c0,7.9-3.9,14.6-11.8,20.2c-7.7,5.4-17.1,8.2-28.2,8.2c-11.3,0-20.8-2.7-28.5-8.2
		C233,388.4,229.2,381.6,229.2,373.4z"/>
	<path style="fill:#9A9A9A;" d="M515.5,195.4h65.7V214c22.9-16.1,48.6-24.1,77.3-24.1c32.9,0,58.6,7.4,77,22.1
		c15.9,12.5,23.8,32.9,23.8,61.3v123.1h-65.7V284.2c0-19.8-3.9-33.4-11.6-41c-7.6-7.7-21.3-11.5-41.3-11.5
		c-21.7,0-37.1,5.1-46.2,15.2c-8.9,10-13.4,27.5-13.4,52.5v96.8h-65.7V195.4z"/>
</g>
<g>
</g>
<g>
</g>
<g>
</g>
<g>
</g>
<g>
</g>
<g>
</g>
<g>
</g>
<g>
</g>
<g>
</g>
<g>
</g>
<g>
</g>
<g>
</g>
<g>
</g>
<g>
</g>
<g>
</g>
</svg>
